<svg xmlns="http://www.w3.org/2000/svg" viewBox="-16 24 812 232" style="color:#201D1B">
  <!-- wordmark: "lanza" outlined from URW Gothic (free geometric sans, Futura-adjacent) -->
  <g fill="currentColor">
    <path d="M 14.04,240 H 48.62 V 47.86 H 14.04 Z"/>
    <path d="m 212.29994,95.96 h -31.72 v 19.24 c -11.96,-15.86 -26.26,-22.62 -47.06,-22.62 -42.64,0 -73.32,31.98 -73.32,75.92 0,43.42 30.42,74.88 72.54,74.88 20.28,0 34.06,-6.24 47.84,-22.1 V 240 h 31.72 z m -75.14,28.34 c 24.7,0 42.38,18.46 42.38,44.72 0,10.4 -4.16,22.36 -10.4,29.64 -7.02,8.58 -18.2,13 -31.46,13 -25.22,0 -42.64,-17.16 -42.64,-42.38 0,-26.26 17.42,-44.98 42.12,-44.98 z"/>
    <path d="m 228.03991,240 h 34.58 v -67.86 c 0,-19.24 1.3,-27.56 5.72,-34.58 5.46,-8.58 14.3,-13.26 25.48,-13.26 9.1,0 16.12,3.12 20.8,9.1 4.68,6.24 6.76,16.9 6.76,36.14 V 240 h 34.58 v -77.22 c 0,-25.74 -2.6,-38.22 -10.4,-49.4 -9.36,-13.52 -24.96,-20.8 -44.98,-20.8 -16.64,0 -27.82,4.68 -40.56,17.16 V 95.96 h -31.98 z"/>
    <path d="m 364.93917,240 h 109.72 v -30.94 h -68.38 l 63.44,-82.16 V 95.96 h -97.5 v 30.94 h 56.16 l -63.44,82.16 z"/>
    <path d="m 626.63886,95.96 h -31.72 v 19.24 c -11.96,-15.86 -26.26,-22.62 -47.06,-22.62 -42.64,0 -73.32,31.98 -73.32,75.92 0,43.42 30.42,74.88 72.54,74.88 20.28,0 34.06,-6.24 47.84,-22.1 V 240 h 31.72 z m -75.14,28.34 c 24.7,0 42.38,18.46 42.38,44.72 0,10.4 -4.16,22.36 -10.4,29.64 -7.02,8.58 -18.2,13 -31.46,13 -25.22,0 -42.64,-17.16 -42.64,-42.38 0,-26.26 17.42,-44.98 42.12,-44.98 z"/>
  </g>
  <!-- ultra-bold compact north-east arrow -->
  <g transform="translate(636,100) scale(1.35)" fill="none" stroke="currentColor"
     stroke-width="19" stroke-linecap="round" stroke-linejoin="round">
    <path d="M20 80 L80 20"/>
    <path d="M80 48 L80 20 L52 20"/>
  </g>
</svg>
